<svg width="50" height="50" viewBox="0 0 50 50" fill="none" xmlns="http://www.w3.org/2000/svg">
<path  class="teste" d="M11.192 43.751H0.825893V14.542H11.192V43.751ZM6.00335 10.5576C2.68862 10.5576 0 8.15527 0 5.25488C2.37254e-08 3.86172 0.632494 2.52562 1.75834 1.5405C2.88419 0.555385 4.41116 0.00195312 6.00335 0.00195312C7.59554 0.00195312 9.12251 0.555385 10.2484 1.5405C11.3742 2.52562 12.0067 3.86172 12.0067 5.25488C12.0067 8.15527 9.31696 10.5576 6.00335 10.5576ZM49.9888 43.751H39.6451V29.5322C39.6451 26.1436 39.567 21.7979 34.2556 21.7979C28.8661 21.7979 28.0402 25.4795 28.0402 29.2881V43.751H17.6853V14.542H27.6272V18.5264H27.7723C29.1562 16.2314 32.5368 13.8096 37.5804 13.8096C48.0714 13.8096 50 19.8545 50 27.7061V43.751H49.9888Z" fill="white"/>
</svg>
