<svg width="130" height="51" viewBox="0 0 130 51" fill="none" xmlns="http://www.w3.org/2000/svg">
<path d="M59.2726 24.1465C47.8698 8.62544 72.3302 0.819305 72.3302 0.819305C85.4608 20.452 97.4046 21.539 123.621 12.8405L96.5145 48.6523C96.5145 48.6523 70.6754 39.6676 59.2726 24.1465Z" fill="url(#paint0_linear)"/>
<path d="M66.8412 25.4915C55.9242 9.5339 79.9874 2 79.9874 2C92.531 22.1638 104.204 23.463 130 15.0508L102.907 51C102.907 51 77.7582 41.4492 66.8412 25.4915Z" fill="url(#paint1_linear)"/>
<path d="M14.056 12.344V25.728C14.056 27.8 13.468 29.396 12.292 30.516C11.1347 31.636 9.56667 32.196 7.588 32.196C5.516 32.196 3.85467 31.608 2.604 30.432C1.35333 29.256 0.728 27.5853 0.728 25.42H5.488C5.488 26.2413 5.656 26.8667 5.992 27.296C6.328 27.7067 6.81333 27.912 7.448 27.912C8.02667 27.912 8.47467 27.7253 8.792 27.352C9.10933 26.9787 9.268 26.4373 9.268 25.728V12.344H14.056ZM23.0755 32.224C21.5448 32.224 20.1635 31.8973 18.9315 31.244C17.7182 30.5907 16.7568 29.6573 16.0475 28.444C15.3568 27.2307 15.0115 25.812 15.0115 24.188C15.0115 22.5827 15.3662 21.1733 16.0755 19.96C16.7848 18.728 17.7555 17.7853 18.9875 17.132C20.2195 16.4787 21.6008 16.152 23.1315 16.152C24.6622 16.152 26.0435 16.4787 27.2755 17.132C28.5075 17.7853 29.4782 18.728 30.1875 19.96C30.8968 21.1733 31.2515 22.5827 31.2515 24.188C31.2515 25.7933 30.8875 27.212 30.1595 28.444C29.4502 29.6573 28.4702 30.5907 27.2195 31.244C25.9875 31.8973 24.6062 32.224 23.0755 32.224ZM23.0755 28.08C23.9902 28.08 24.7648 27.744 25.3995 27.072C26.0528 26.4 26.3795 25.4387 26.3795 24.188C26.3795 22.9373 26.0622 21.976 25.4275 21.304C24.8115 20.632 24.0462 20.296 23.1315 20.296C22.1982 20.296 21.4235 20.632 20.8075 21.304C20.1915 21.9573 19.8835 22.9187 19.8835 24.188C19.8835 25.4387 20.1822 26.4 20.7795 27.072C21.3955 27.744 22.1608 28.08 23.0755 28.08ZM41.4356 16.208C43.2276 16.208 44.665 16.8053 45.7476 18C46.8303 19.176 47.3716 20.8 47.3716 22.872V32H42.6116V23.516C42.6116 22.4707 42.341 21.6587 41.7996 21.08C41.2583 20.5013 40.5303 20.212 39.6156 20.212C38.701 20.212 37.973 20.5013 37.4316 21.08C36.8903 21.6587 36.6196 22.4707 36.6196 23.516V32H31.8316V11.28H36.6196V18.476C37.105 17.7853 37.7676 17.2347 38.6076 16.824C39.4476 16.4133 40.3903 16.208 41.4356 16.208ZM58.2588 16.208C60.0881 16.208 61.5441 16.8053 62.6268 18C63.7281 19.176 64.2788 20.8 64.2788 22.872V32H59.5188V23.516C59.5188 22.4707 59.2481 21.6587 58.7068 21.08C58.1655 20.5013 57.4375 20.212 56.5228 20.212C55.6081 20.212 54.8801 20.5013 54.3388 21.08C53.7975 21.6587 53.5268 22.4707 53.5268 23.516V32H48.7388V16.376H53.5268V18.448C54.0121 17.7573 54.6655 17.216 55.4868 16.824C56.3081 16.4133 57.2321 16.208 58.2588 16.208ZM75.166 16.208C76.9953 16.208 78.4513 16.8053 79.534 18C80.6353 19.176 81.186 20.8 81.186 22.872V32H76.426V23.516C76.426 22.4707 76.1553 21.6587 75.614 21.08C75.0727 20.5013 74.3447 20.212 73.43 20.212C72.5153 20.212 71.7873 20.5013 71.246 21.08C70.7047 21.6587 70.434 22.4707 70.434 23.516V32H65.646V16.376H70.434V18.448C70.9193 17.7573 71.5727 17.216 72.394 16.824C73.2153 16.4133 74.1393 16.208 75.166 16.208ZM98.5132 16.376L88.7132 39.42H83.5612L87.1452 31.468L80.7892 16.376H86.1372L89.7492 26.148L93.3332 16.376H98.5132Z" fill="white"/>
<circle r="4" transform="matrix(-1 0 0 1 102 28)" fill="#84F7B4"/>
<defs>
<linearGradient id="paint0_linear" x1="63.3101" y1="-5.8867" x2="90.4804" y2="48.7491" gradientUnits="userSpaceOnUse">
<stop offset="0.146194" stop-color="#784D4D"/>
<stop offset="1" stop-color="#442B65"/>
</linearGradient>
<linearGradient id="paint1_linear" x1="20.4125" y1="-12.1767" x2="124.982" y2="43.866" gradientUnits="userSpaceOnUse">
<stop offset="0.126751" stop-color="#9B7BDE"/>
<stop offset="0.486326" stop-color="#9872E8"/>
<stop offset="0.899291" stop-color="#BB31AD" stop-opacity="0.5"/>
</linearGradient>
</defs>
</svg>
