<svg width="1440" height="1024" viewBox="0 0 1440 1024" fill="none" xmlns="http://www.w3.org/2000/svg">
<rect width="1440" height="1024" fill="#131417"/>
<path d="M135.273 35.1455C123.87 19.6245 148.33 11.8183 148.33 11.8183C161.461 31.451 173.405 32.538 199.621 23.8395L172.514 59.6514C172.514 59.6514 146.675 50.6666 135.273 35.1455Z" fill="url(#paint0_linear)"/>
<path d="M142.841 36.4915C131.924 20.5339 155.987 13 155.987 13C168.531 33.1638 180.204 34.463 206 26.0508L178.907 62C178.907 62 153.758 52.4492 142.841 36.4915Z" fill="url(#paint1_linear)"/>
<path d="M90.056 23.344V36.728C90.056 38.8 89.468 40.396 88.292 41.516C87.1347 42.636 85.5667 43.196 83.588 43.196C81.516 43.196 79.8547 42.608 78.604 41.432C77.3533 40.256 76.728 38.5853 76.728 36.42H81.488C81.488 37.2413 81.656 37.8667 81.992 38.296C82.328 38.7067 82.8133 38.912 83.448 38.912C84.0267 38.912 84.4747 38.7253 84.792 38.352C85.1093 37.9787 85.268 37.4373 85.268 36.728V23.344H90.056ZM99.0755 43.224C97.5448 43.224 96.1635 42.8973 94.9315 42.244C93.7182 41.5907 92.7568 40.6573 92.0475 39.444C91.3568 38.2307 91.0115 36.812 91.0115 35.188C91.0115 33.5827 91.3662 32.1733 92.0755 30.96C92.7848 29.728 93.7555 28.7853 94.9875 28.132C96.2195 27.4787 97.6008 27.152 99.1315 27.152C100.662 27.152 102.044 27.4787 103.276 28.132C104.508 28.7853 105.478 29.728 106.188 30.96C106.897 32.1733 107.252 33.5827 107.252 35.188C107.252 36.7933 106.888 38.212 106.16 39.444C105.45 40.6573 104.47 41.5907 103.22 42.244C101.988 42.8973 100.606 43.224 99.0755 43.224ZM99.0755 39.08C99.9902 39.08 100.765 38.744 101.4 38.072C102.053 37.4 102.38 36.4387 102.38 35.188C102.38 33.9373 102.062 32.976 101.428 32.304C100.812 31.632 100.046 31.296 99.1315 31.296C98.1982 31.296 97.4235 31.632 96.8075 32.304C96.1915 32.9573 95.8835 33.9187 95.8835 35.188C95.8835 36.4387 96.1822 37.4 96.7795 38.072C97.3955 38.744 98.1608 39.08 99.0755 39.08ZM117.436 27.208C119.228 27.208 120.665 27.8053 121.748 29C122.83 30.176 123.372 31.8 123.372 33.872V43H118.612V34.516C118.612 33.4707 118.341 32.6587 117.8 32.08C117.258 31.5013 116.53 31.212 115.616 31.212C114.701 31.212 113.973 31.5013 113.432 32.08C112.89 32.6587 112.62 33.4707 112.62 34.516V43H107.832V22.28H112.62V29.476C113.105 28.7853 113.768 28.2347 114.608 27.824C115.448 27.4133 116.39 27.208 117.436 27.208ZM134.259 27.208C136.088 27.208 137.544 27.8053 138.627 29C139.728 30.176 140.279 31.8 140.279 33.872V43H135.519V34.516C135.519 33.4707 135.248 32.6587 134.707 32.08C134.165 31.5013 133.437 31.212 132.523 31.212C131.608 31.212 130.88 31.5013 130.339 32.08C129.797 32.6587 129.527 33.4707 129.527 34.516V43H124.739V27.376H129.527V29.448C130.012 28.7573 130.665 28.216 131.487 27.824C132.308 27.4133 133.232 27.208 134.259 27.208ZM151.166 27.208C152.995 27.208 154.451 27.8053 155.534 29C156.635 30.176 157.186 31.8 157.186 33.872V43H152.426V34.516C152.426 33.4707 152.155 32.6587 151.614 32.08C151.073 31.5013 150.345 31.212 149.43 31.212C148.515 31.212 147.787 31.5013 147.246 32.08C146.705 32.6587 146.434 33.4707 146.434 34.516V43H141.646V27.376H146.434V29.448C146.919 28.7573 147.573 28.216 148.394 27.824C149.215 27.4133 150.139 27.208 151.166 27.208ZM174.513 27.376L164.713 50.42H159.561L163.145 42.468L156.789 27.376H162.137L165.749 37.148L169.333 27.376H174.513Z" fill="white"/>
<circle r="4" transform="matrix(-1 0 0 1 178 39)" fill="#84F7B4"/>
<path d="M862.728 33.768V45H859.992V33.768H862.728ZM869.031 35.976C870.076 35.976 870.908 36.3173 871.527 37C872.156 37.672 872.471 38.6 872.471 39.784V45H869.751V40.152C869.751 39.5547 869.596 39.0907 869.287 38.76C868.977 38.4293 868.561 38.264 868.039 38.264C867.516 38.264 867.1 38.4293 866.791 38.76C866.481 39.0907 866.327 39.5547 866.327 40.152V45H863.591V36.072H866.327V37.256C866.604 36.8613 866.977 36.552 867.447 36.328C867.916 36.0933 868.444 35.976 869.031 35.976ZM874.628 35.144C874.148 35.144 873.753 35.0053 873.444 34.728C873.145 34.44 872.996 34.088 872.996 33.672C872.996 33.2453 873.145 32.8933 873.444 32.616C873.753 32.328 874.148 32.184 874.628 32.184C875.097 32.184 875.481 32.328 875.78 32.616C876.089 32.8933 876.244 33.2453 876.244 33.672C876.244 34.088 876.089 34.44 875.78 34.728C875.481 35.0053 875.097 35.144 874.628 35.144ZM875.988 36.072V45H873.252V36.072H875.988ZM876.307 40.536C876.307 39.608 876.493 38.7973 876.867 38.104C877.251 37.4107 877.779 36.8773 878.451 36.504C879.133 36.1307 879.912 35.944 880.787 35.944C881.907 35.944 882.84 36.2373 883.587 36.824C884.344 37.4107 884.84 38.2373 885.075 39.304H882.163C881.917 38.6213 881.443 38.28 880.739 38.28C880.237 38.28 879.837 38.4773 879.539 38.872C879.24 39.256 879.091 39.8107 879.091 40.536C879.091 41.2613 879.24 41.8213 879.539 42.216C879.837 42.6 880.237 42.792 880.739 42.792C881.443 42.792 881.917 42.4507 882.163 41.768H885.075C884.84 42.8133 884.344 43.6347 883.587 44.232C882.829 44.8293 881.896 45.128 880.787 45.128C879.912 45.128 879.133 44.9413 878.451 44.568C877.779 44.1947 877.251 43.6613 876.867 42.968C876.493 42.2747 876.307 41.464 876.307 40.536ZM886.794 35.144C886.314 35.144 885.92 35.0053 885.61 34.728C885.312 34.44 885.162 34.088 885.162 33.672C885.162 33.2453 885.312 32.8933 885.61 32.616C885.92 32.328 886.314 32.184 886.794 32.184C887.264 32.184 887.648 32.328 887.946 32.616C888.256 32.8933 888.41 33.2453 888.41 33.672C888.41 34.088 888.256 34.44 887.946 34.728C887.648 35.0053 887.264 35.144 886.794 35.144ZM888.154 36.072V45H885.418V36.072H888.154ZM893.081 45.128C892.206 45.128 891.417 44.9413 890.713 44.568C890.02 44.1947 889.47 43.6613 889.065 42.968C888.67 42.2747 888.473 41.464 888.473 40.536C888.473 39.6187 888.676 38.8133 889.081 38.12C889.486 37.416 890.041 36.8773 890.745 36.504C891.449 36.1307 892.238 35.944 893.113 35.944C893.988 35.944 894.777 36.1307 895.481 36.504C896.185 36.8773 896.74 37.416 897.145 38.12C897.55 38.8133 897.753 39.6187 897.753 40.536C897.753 41.4533 897.545 42.264 897.129 42.968C896.724 43.6613 896.164 44.1947 895.449 44.568C894.745 44.9413 893.956 45.128 893.081 45.128ZM893.081 42.76C893.604 42.76 894.046 42.568 894.409 42.184C894.782 41.8 894.969 41.2507 894.969 40.536C894.969 39.8213 894.788 39.272 894.425 38.888C894.073 38.504 893.636 38.312 893.113 38.312C892.58 38.312 892.137 38.504 891.785 38.888C891.433 39.2613 891.257 39.8107 891.257 40.536C891.257 41.2507 891.428 41.8 891.769 42.184C892.121 42.568 892.558 42.76 893.081 42.76Z" fill="white"/>
<path d="M944.056 45.112C943.235 45.112 942.499 44.9787 941.848 44.712C941.197 44.4453 940.675 44.0507 940.28 43.528C939.896 43.0053 939.693 42.376 939.672 41.64H942.584C942.627 42.056 942.771 42.376 943.016 42.6C943.261 42.8133 943.581 42.92 943.976 42.92C944.381 42.92 944.701 42.8293 944.936 42.648C945.171 42.456 945.288 42.1947 945.288 41.864C945.288 41.5867 945.192 41.3573 945 41.176C944.819 40.9947 944.589 40.8453 944.312 40.728C944.045 40.6107 943.661 40.4773 943.16 40.328C942.435 40.104 941.843 39.88 941.384 39.656C940.925 39.432 940.531 39.1013 940.2 38.664C939.869 38.2267 939.704 37.656 939.704 36.952C939.704 35.9067 940.083 35.0907 940.84 34.504C941.597 33.9067 942.584 33.608 943.8 33.608C945.037 33.608 946.035 33.9067 946.792 34.504C947.549 35.0907 947.955 35.912 948.008 36.968H945.048C945.027 36.6053 944.893 36.3227 944.648 36.12C944.403 35.9067 944.088 35.8 943.704 35.8C943.373 35.8 943.107 35.8907 942.904 36.072C942.701 36.2427 942.6 36.4933 942.6 36.824C942.6 37.1867 942.771 37.4693 943.112 37.672C943.453 37.8747 943.987 38.0933 944.712 38.328C945.437 38.5733 946.024 38.808 946.472 39.032C946.931 39.256 947.325 39.5813 947.656 40.008C947.987 40.4347 948.152 40.984 948.152 41.656C948.152 42.296 947.987 42.8773 947.656 43.4C947.336 43.9227 946.867 44.3387 946.248 44.648C945.629 44.9573 944.899 45.112 944.056 45.112ZM952.78 45.128C951.905 45.128 951.116 44.9413 950.412 44.568C949.718 44.1947 949.169 43.6613 948.764 42.968C948.369 42.2747 948.172 41.464 948.172 40.536C948.172 39.6187 948.374 38.8133 948.78 38.12C949.185 37.416 949.74 36.8773 950.444 36.504C951.148 36.1307 951.937 35.944 952.812 35.944C953.686 35.944 954.476 36.1307 955.18 36.504C955.884 36.8773 956.438 37.416 956.844 38.12C957.249 38.8133 957.452 39.6187 957.452 40.536C957.452 41.4533 957.244 42.264 956.828 42.968C956.422 43.6613 955.862 44.1947 955.148 44.568C954.444 44.9413 953.654 45.128 952.78 45.128ZM952.78 42.76C953.302 42.76 953.745 42.568 954.108 42.184C954.481 41.8 954.668 41.2507 954.668 40.536C954.668 39.8213 954.486 39.272 954.124 38.888C953.772 38.504 953.334 38.312 952.812 38.312C952.278 38.312 951.836 38.504 951.484 38.888C951.132 39.2613 950.956 39.8107 950.956 40.536C950.956 41.2507 951.126 41.8 951.468 42.184C951.82 42.568 952.257 42.76 952.78 42.76ZM960.519 37.336C960.775 36.92 961.143 36.584 961.623 36.328C962.103 36.072 962.653 35.944 963.271 35.944C964.007 35.944 964.674 36.1307 965.271 36.504C965.869 36.8773 966.338 37.4107 966.679 38.104C967.031 38.7973 967.207 39.6027 967.207 40.52C967.207 41.4373 967.031 42.248 966.679 42.952C966.338 43.6453 965.869 44.184 965.271 44.568C964.674 44.9413 964.007 45.128 963.271 45.128C962.642 45.128 962.093 45.0053 961.623 44.76C961.154 44.504 960.786 44.168 960.519 43.752V45H957.783V33.16H960.519V37.336ZM964.423 40.52C964.423 39.8373 964.231 39.304 963.847 38.92C963.474 38.5253 963.01 38.328 962.455 38.328C961.911 38.328 961.447 38.5253 961.063 38.92C960.69 39.3147 960.503 39.8533 960.503 40.536C960.503 41.2187 960.69 41.7573 961.063 42.152C961.447 42.5467 961.911 42.744 962.455 42.744C962.999 42.744 963.463 42.5467 963.847 42.152C964.231 41.7467 964.423 41.2027 964.423 40.52ZM970.259 37.56C970.579 37.0693 970.979 36.6853 971.459 36.408C971.939 36.12 972.472 35.976 973.059 35.976V38.872H972.307C971.624 38.872 971.112 39.0213 970.771 39.32C970.429 39.608 970.259 40.12 970.259 40.856V45H967.523V36.072H970.259V37.56ZM981.662 40.392C981.662 40.648 981.646 40.9147 981.614 41.192H975.422C975.465 41.7467 975.641 42.1733 975.95 42.472C976.27 42.76 976.66 42.904 977.118 42.904C977.801 42.904 978.276 42.616 978.542 42.04H981.454C981.305 42.6267 981.033 43.1547 980.638 43.624C980.254 44.0933 979.769 44.4613 979.182 44.728C978.596 44.9947 977.94 45.128 977.214 45.128C976.34 45.128 975.561 44.9413 974.878 44.568C974.196 44.1947 973.662 43.6613 973.278 42.968C972.894 42.2747 972.702 41.464 972.702 40.536C972.702 39.608 972.889 38.7973 973.262 38.104C973.646 37.4107 974.18 36.8773 974.862 36.504C975.545 36.1307 976.329 35.944 977.214 35.944C978.078 35.944 978.846 36.1253 979.518 36.488C980.19 36.8507 980.713 37.368 981.086 38.04C981.47 38.712 981.662 39.496 981.662 40.392ZM978.862 39.672C978.862 39.2027 978.702 38.8293 978.382 38.552C978.062 38.2747 977.662 38.136 977.182 38.136C976.724 38.136 976.334 38.2693 976.014 38.536C975.705 38.8027 975.513 39.1813 975.438 39.672H978.862Z" fill="white"/>
<path d="M1033.72 33.768V45H1030.98V40.376H1026.73V45H1023.99V33.768H1026.73V38.168H1030.98V33.768H1033.72ZM1034.03 40.52C1034.03 39.6027 1034.2 38.7973 1034.54 38.104C1034.9 37.4107 1035.37 36.8773 1035.97 36.504C1036.56 36.1307 1037.23 35.944 1037.97 35.944C1038.6 35.944 1039.15 36.072 1039.62 36.328C1040.1 36.584 1040.46 36.92 1040.72 37.336V36.072H1043.46V45H1040.72V43.736C1040.45 44.152 1040.08 44.488 1039.6 44.744C1039.13 45 1038.58 45.128 1037.95 45.128C1037.23 45.128 1036.56 44.9413 1035.97 44.568C1035.37 44.184 1034.9 43.6453 1034.54 42.952C1034.2 42.248 1034.03 41.4373 1034.03 40.52ZM1040.72 40.536C1040.72 39.8533 1040.53 39.3147 1040.14 38.92C1039.77 38.5253 1039.31 38.328 1038.77 38.328C1038.22 38.328 1037.76 38.5253 1037.38 38.92C1037 39.304 1036.82 39.8373 1036.82 40.52C1036.82 41.2027 1037 41.7467 1037.38 42.152C1037.76 42.5467 1038.22 42.744 1038.77 42.744C1039.31 42.744 1039.77 42.5467 1040.14 42.152C1040.53 41.7573 1040.72 41.2187 1040.72 40.536ZM1047.05 37.336C1047.31 36.92 1047.67 36.584 1048.15 36.328C1048.63 36.072 1049.18 35.944 1049.8 35.944C1050.54 35.944 1051.21 36.1307 1051.8 36.504C1052.4 36.8773 1052.87 37.4107 1053.21 38.104C1053.56 38.7973 1053.74 39.6027 1053.74 40.52C1053.74 41.4373 1053.56 42.248 1053.21 42.952C1052.87 43.6453 1052.4 44.184 1051.8 44.568C1051.21 44.9413 1050.54 45.128 1049.8 45.128C1049.17 45.128 1048.62 45.0053 1048.15 44.76C1047.69 44.504 1047.32 44.168 1047.05 43.752V45H1044.31V33.16H1047.05V37.336ZM1050.95 40.52C1050.95 39.8373 1050.76 39.304 1050.38 38.92C1050.01 38.5253 1049.54 38.328 1048.99 38.328C1048.44 38.328 1047.98 38.5253 1047.59 38.92C1047.22 39.3147 1047.03 39.8533 1047.03 40.536C1047.03 41.2187 1047.22 41.7573 1047.59 42.152C1047.98 42.5467 1048.44 42.744 1048.99 42.744C1049.53 42.744 1049.99 42.5467 1050.38 42.152C1050.76 41.7467 1050.95 41.2027 1050.95 40.52ZM1055.43 35.144C1054.95 35.144 1054.56 35.0053 1054.25 34.728C1053.95 34.44 1053.8 34.088 1053.8 33.672C1053.8 33.2453 1053.95 32.8933 1054.25 32.616C1054.56 32.328 1054.95 32.184 1055.43 32.184C1055.9 32.184 1056.28 32.328 1056.58 32.616C1056.89 32.8933 1057.05 33.2453 1057.05 33.672C1057.05 34.088 1056.89 34.44 1056.58 34.728C1056.28 35.0053 1055.9 35.144 1055.43 35.144ZM1056.79 36.072V45H1054.05V36.072H1056.79ZM1060.39 33.16V45H1057.65V33.16H1060.39ZM1062.63 35.144C1062.15 35.144 1061.75 35.0053 1061.44 34.728C1061.14 34.44 1061 34.088 1061 33.672C1061 33.2453 1061.14 32.8933 1061.44 32.616C1061.75 32.328 1062.15 32.184 1062.63 32.184C1063.1 32.184 1063.48 32.328 1063.78 32.616C1064.09 32.8933 1064.24 33.2453 1064.24 33.672C1064.24 34.088 1064.09 34.44 1063.78 34.728C1063.48 35.0053 1063.1 35.144 1062.63 35.144ZM1063.99 36.072V45H1061.25V36.072H1063.99ZM1064.31 40.52C1064.31 39.6027 1064.48 38.7973 1064.82 38.104C1065.17 37.4107 1065.64 36.8773 1066.24 36.504C1066.84 36.1307 1067.51 35.944 1068.24 35.944C1068.83 35.944 1069.36 36.0667 1069.84 36.312C1070.33 36.5573 1070.72 36.888 1070.99 37.304V33.16H1073.73V45H1070.99V43.72C1070.74 44.1467 1070.37 44.488 1069.89 44.744C1069.42 45 1068.87 45.128 1068.24 45.128C1067.51 45.128 1066.84 44.9413 1066.24 44.568C1065.64 44.184 1065.17 43.6453 1064.82 42.952C1064.48 42.248 1064.31 41.4373 1064.31 40.52ZM1070.99 40.536C1070.99 39.8533 1070.8 39.3147 1070.42 38.92C1070.04 38.5253 1069.59 38.328 1069.04 38.328C1068.5 38.328 1068.03 38.5253 1067.65 38.92C1067.28 39.304 1067.09 39.8373 1067.09 40.52C1067.09 41.2027 1067.28 41.7467 1067.65 42.152C1068.03 42.5467 1068.5 42.744 1069.04 42.744C1069.59 42.744 1070.04 42.5467 1070.42 42.152C1070.8 41.7573 1070.99 41.2187 1070.99 40.536ZM1074.05 40.52C1074.05 39.6027 1074.22 38.7973 1074.56 38.104C1074.91 37.4107 1075.38 36.8773 1075.98 36.504C1076.58 36.1307 1077.25 35.944 1077.98 35.944C1078.61 35.944 1079.16 36.072 1079.63 36.328C1080.11 36.584 1080.48 36.92 1080.73 37.336V36.072H1083.47V45H1080.73V43.736C1080.47 44.152 1080.09 44.488 1079.61 44.744C1079.14 45 1078.59 45.128 1077.97 45.128C1077.24 45.128 1076.58 44.9413 1075.98 44.568C1075.38 44.184 1074.91 43.6453 1074.56 42.952C1074.22 42.248 1074.05 41.4373 1074.05 40.52ZM1080.73 40.536C1080.73 39.8533 1080.54 39.3147 1080.16 38.92C1079.78 38.5253 1079.33 38.328 1078.78 38.328C1078.24 38.328 1077.77 38.5253 1077.39 38.92C1077.02 39.304 1076.83 39.8373 1076.83 40.52C1076.83 41.2027 1077.02 41.7467 1077.39 42.152C1077.77 42.5467 1078.24 42.744 1078.78 42.744C1079.33 42.744 1079.78 42.5467 1080.16 42.152C1080.54 41.7573 1080.73 41.2187 1080.73 40.536ZM1083.78 40.52C1083.78 39.6027 1083.96 38.7973 1084.3 38.104C1084.65 37.4107 1085.12 36.8773 1085.72 36.504C1086.32 36.1307 1086.98 35.944 1087.72 35.944C1088.31 35.944 1088.84 36.0667 1089.32 36.312C1089.81 36.5573 1090.2 36.888 1090.47 37.304V33.16H1093.21V45H1090.47V43.72C1090.22 44.1467 1089.85 44.488 1089.37 44.744C1088.9 45 1088.35 45.128 1087.72 45.128C1086.98 45.128 1086.32 44.9413 1085.72 44.568C1085.12 44.184 1084.65 43.6453 1084.3 42.952C1083.96 42.248 1083.78 41.4373 1083.78 40.52ZM1090.47 40.536C1090.47 39.8533 1090.28 39.3147 1089.9 38.92C1089.52 38.5253 1089.06 38.328 1088.52 38.328C1087.98 38.328 1087.51 38.5253 1087.13 38.92C1086.76 39.304 1086.57 39.8373 1086.57 40.52C1086.57 41.2027 1086.76 41.7467 1087.13 42.152C1087.51 42.5467 1087.98 42.744 1088.52 42.744C1089.06 42.744 1089.52 42.5467 1089.9 42.152C1090.28 41.7573 1090.47 41.2187 1090.47 40.536ZM1102.48 40.392C1102.48 40.648 1102.47 40.9147 1102.44 41.192H1096.24C1096.29 41.7467 1096.46 42.1733 1096.77 42.472C1097.09 42.76 1097.48 42.904 1097.94 42.904C1098.62 42.904 1099.1 42.616 1099.36 42.04H1102.28C1102.13 42.6267 1101.85 43.1547 1101.46 43.624C1101.08 44.0933 1100.59 44.4613 1100 44.728C1099.42 44.9947 1098.76 45.128 1098.04 45.128C1097.16 45.128 1096.38 44.9413 1095.7 44.568C1095.02 44.1947 1094.48 43.6613 1094.1 42.968C1093.72 42.2747 1093.52 41.464 1093.52 40.536C1093.52 39.608 1093.71 38.7973 1094.08 38.104C1094.47 37.4107 1095 36.8773 1095.68 36.504C1096.37 36.1307 1097.15 35.944 1098.04 35.944C1098.9 35.944 1099.67 36.1253 1100.34 36.488C1101.01 36.8507 1101.53 37.368 1101.91 38.04C1102.29 38.712 1102.48 39.496 1102.48 40.392ZM1099.68 39.672C1099.68 39.2027 1099.52 38.8293 1099.2 38.552C1098.88 38.2747 1098.48 38.136 1098 38.136C1097.55 38.136 1097.16 38.2693 1096.84 38.536C1096.53 38.8027 1096.33 39.1813 1096.26 39.672H1099.68ZM1106.44 45.128C1105.66 45.128 1104.97 44.9947 1104.36 44.728C1103.75 44.4613 1103.27 44.0987 1102.92 43.64C1102.57 43.1707 1102.37 42.648 1102.33 42.072H1105.03C1105.06 42.3813 1105.21 42.632 1105.46 42.824C1105.72 43.016 1106.03 43.112 1106.41 43.112C1106.75 43.112 1107.01 43.048 1107.19 42.92C1107.38 42.7813 1107.48 42.6053 1107.48 42.392C1107.48 42.136 1107.35 41.9493 1107.08 41.832C1106.81 41.704 1106.38 41.5653 1105.78 41.416C1105.14 41.2667 1104.61 41.112 1104.18 40.952C1103.76 40.7813 1103.39 40.52 1103.08 40.168C1102.77 39.8053 1102.62 39.32 1102.62 38.712C1102.62 38.2 1102.75 37.736 1103.03 37.32C1103.32 36.8933 1103.74 36.5573 1104.28 36.312C1104.83 36.0667 1105.49 35.944 1106.25 35.944C1107.37 35.944 1108.25 36.2213 1108.89 36.776C1109.54 37.3307 1109.91 38.0667 1110.01 38.984H1107.48C1107.44 38.6747 1107.3 38.4293 1107.06 38.248C1106.84 38.0667 1106.54 37.976 1106.17 37.976C1105.85 37.976 1105.6 38.04 1105.43 38.168C1105.26 38.2853 1105.18 38.4507 1105.18 38.664C1105.18 38.92 1105.31 39.112 1105.58 39.24C1105.85 39.368 1106.28 39.496 1106.86 39.624C1107.52 39.7947 1108.06 39.9653 1108.47 40.136C1108.89 40.296 1109.25 40.5627 1109.56 40.936C1109.88 41.2987 1110.04 41.7893 1110.06 42.408C1110.06 42.9307 1109.91 43.4 1109.61 43.816C1109.32 44.2213 1108.9 44.5413 1108.34 44.776C1107.8 45.0107 1107.16 45.128 1106.44 45.128Z" fill="white"/>
<path d="M1172.07 33.768V35.96H1169.1V45H1166.36V35.96H1163.38V33.768H1172.07ZM1175.06 37.56C1175.38 37.0693 1175.78 36.6853 1176.26 36.408C1176.74 36.12 1177.27 35.976 1177.86 35.976V38.872H1177.11C1176.43 38.872 1175.91 39.0213 1175.57 39.32C1175.23 39.608 1175.06 40.12 1175.06 40.856V45H1172.33V36.072H1175.06V37.56ZM1177.5 40.52C1177.5 39.6027 1177.68 38.7973 1178.02 38.104C1178.37 37.4107 1178.84 36.8773 1179.44 36.504C1180.04 36.1307 1180.7 35.944 1181.44 35.944C1182.07 35.944 1182.62 36.072 1183.09 36.328C1183.57 36.584 1183.94 36.92 1184.19 37.336V36.072H1186.93V45H1184.19V43.736C1183.93 44.152 1183.55 44.488 1183.07 44.744C1182.6 45 1182.05 45.128 1181.42 45.128C1180.7 45.128 1180.04 44.9413 1179.44 44.568C1178.84 44.184 1178.37 43.6453 1178.02 42.952C1177.68 42.248 1177.5 41.4373 1177.5 40.52ZM1184.19 40.536C1184.19 39.8533 1184 39.3147 1183.62 38.92C1183.24 38.5253 1182.78 38.328 1182.24 38.328C1181.7 38.328 1181.23 38.5253 1180.85 38.92C1180.48 39.304 1180.29 39.8373 1180.29 40.52C1180.29 41.2027 1180.48 41.7467 1180.85 42.152C1181.23 42.5467 1181.7 42.744 1182.24 42.744C1182.78 42.744 1183.24 42.5467 1183.62 42.152C1184 41.7573 1184.19 41.2187 1184.19 40.536ZM1190.52 37.336C1190.78 36.92 1191.15 36.584 1191.63 36.328C1192.11 36.072 1192.66 35.944 1193.28 35.944C1194.01 35.944 1194.68 36.1307 1195.28 36.504C1195.87 36.8773 1196.34 37.4107 1196.68 38.104C1197.04 38.7973 1197.21 39.6027 1197.21 40.52C1197.21 41.4373 1197.04 42.248 1196.68 42.952C1196.34 43.6453 1195.87 44.184 1195.28 44.568C1194.68 44.9413 1194.01 45.128 1193.28 45.128C1192.65 45.128 1192.1 45.0053 1191.63 44.76C1191.16 44.504 1190.79 44.168 1190.52 43.752V45H1187.79V33.16H1190.52V37.336ZM1194.43 40.52C1194.43 39.8373 1194.24 39.304 1193.85 38.92C1193.48 38.5253 1193.01 38.328 1192.46 38.328C1191.92 38.328 1191.45 38.5253 1191.07 38.92C1190.69 39.3147 1190.51 39.8533 1190.51 40.536C1190.51 41.2187 1190.69 41.7573 1191.07 42.152C1191.45 42.5467 1191.92 42.744 1192.46 42.744C1193 42.744 1193.47 42.5467 1193.85 42.152C1194.24 41.7467 1194.43 41.2027 1194.43 40.52ZM1196.98 40.52C1196.98 39.6027 1197.15 38.7973 1197.5 38.104C1197.85 37.4107 1198.32 36.8773 1198.92 36.504C1199.52 36.1307 1200.18 35.944 1200.92 35.944C1201.55 35.944 1202.1 36.072 1202.57 36.328C1203.05 36.584 1203.42 36.92 1203.67 37.336V36.072H1206.41V45H1203.67V43.736C1203.4 44.152 1203.03 44.488 1202.55 44.744C1202.08 45 1201.53 45.128 1200.9 45.128C1200.18 45.128 1199.52 44.9413 1198.92 44.568C1198.32 44.184 1197.85 43.6453 1197.5 42.952C1197.15 42.248 1196.98 41.4373 1196.98 40.52ZM1203.67 40.536C1203.67 39.8533 1203.48 39.3147 1203.1 38.92C1202.72 38.5253 1202.26 38.328 1201.72 38.328C1201.18 38.328 1200.71 38.5253 1200.33 38.92C1199.95 39.304 1199.77 39.8373 1199.77 40.52C1199.77 41.2027 1199.95 41.7467 1200.33 42.152C1200.71 42.5467 1201.18 42.744 1201.72 42.744C1202.26 42.744 1202.72 42.5467 1203.1 42.152C1203.48 41.7573 1203.67 41.2187 1203.67 40.536ZM1210 33.16V45H1207.27V33.16H1210ZM1216.35 35.976C1217.38 35.976 1218.2 36.3173 1218.82 37C1219.44 37.672 1219.75 38.6 1219.75 39.784V45H1217.03V40.152C1217.03 39.5547 1216.87 39.0907 1216.56 38.76C1216.25 38.4293 1215.84 38.264 1215.31 38.264C1214.79 38.264 1214.38 38.4293 1214.07 38.76C1213.76 39.0907 1213.6 39.5547 1213.6 40.152V45H1210.87V33.16H1213.6V37.272C1213.88 36.8773 1214.26 36.5627 1214.74 36.328C1215.22 36.0933 1215.76 35.976 1216.35 35.976ZM1224.59 45.128C1223.72 45.128 1222.93 44.9413 1222.22 44.568C1221.53 44.1947 1220.98 43.6613 1220.57 42.968C1220.18 42.2747 1219.98 41.464 1219.98 40.536C1219.98 39.6187 1220.19 38.8133 1220.59 38.12C1221 37.416 1221.55 36.8773 1222.25 36.504C1222.96 36.1307 1223.75 35.944 1224.62 35.944C1225.5 35.944 1226.29 36.1307 1226.99 36.504C1227.7 36.8773 1228.25 37.416 1228.66 38.12C1229.06 38.8133 1229.26 39.6187 1229.26 40.536C1229.26 41.4533 1229.06 42.264 1228.64 42.968C1228.23 43.6613 1227.67 44.1947 1226.96 44.568C1226.26 44.9413 1225.47 45.128 1224.59 45.128ZM1224.59 42.76C1225.11 42.76 1225.56 42.568 1225.92 42.184C1226.29 41.8 1226.48 41.2507 1226.48 40.536C1226.48 39.8213 1226.3 39.272 1225.93 38.888C1225.58 38.504 1225.15 38.312 1224.62 38.312C1224.09 38.312 1223.65 38.504 1223.3 38.888C1222.94 39.2613 1222.77 39.8107 1222.77 40.536C1222.77 41.2507 1222.94 41.8 1223.28 42.184C1223.63 42.568 1224.07 42.76 1224.59 42.76ZM1233.23 45.128C1232.45 45.128 1231.75 44.9947 1231.15 44.728C1230.54 44.4613 1230.06 44.0987 1229.71 43.64C1229.35 43.1707 1229.16 42.648 1229.11 42.072H1231.82C1231.85 42.3813 1231.99 42.632 1232.25 42.824C1232.51 43.016 1232.82 43.112 1233.19 43.112C1233.54 43.112 1233.8 43.048 1233.98 42.92C1234.17 42.7813 1234.27 42.6053 1234.27 42.392C1234.27 42.136 1234.13 41.9493 1233.87 41.832C1233.6 41.704 1233.17 41.5653 1232.57 41.416C1231.93 41.2667 1231.4 41.112 1230.97 40.952C1230.54 40.7813 1230.18 40.52 1229.87 40.168C1229.56 39.8053 1229.4 39.32 1229.4 38.712C1229.4 38.2 1229.54 37.736 1229.82 37.32C1230.11 36.8933 1230.52 36.5573 1231.07 36.312C1231.62 36.0667 1232.28 35.944 1233.03 35.944C1234.15 35.944 1235.03 36.2213 1235.67 36.776C1236.33 37.3307 1236.7 38.0667 1236.79 38.984H1234.27C1234.22 38.6747 1234.09 38.4293 1233.85 38.248C1233.63 38.0667 1233.33 37.976 1232.95 37.976C1232.63 37.976 1232.39 38.04 1232.22 38.168C1232.05 38.2853 1231.96 38.4507 1231.96 38.664C1231.96 38.92 1232.1 39.112 1232.36 39.24C1232.64 39.368 1233.07 39.496 1233.64 39.624C1234.3 39.7947 1234.84 39.9653 1235.26 40.136C1235.67 40.296 1236.04 40.5627 1236.35 40.936C1236.67 41.2987 1236.83 41.7893 1236.84 42.408C1236.84 42.9307 1236.69 43.4 1236.39 43.816C1236.11 44.2213 1235.69 44.5413 1235.13 44.776C1234.59 45.0107 1233.95 45.128 1233.23 45.128Z" fill="white"/>
<path d="M1287.53 39.368C1287.53 38.2587 1287.77 37.272 1288.25 36.408C1288.73 35.5333 1289.39 34.856 1290.25 34.376C1291.11 33.8853 1292.09 33.64 1293.18 33.64C1294.51 33.64 1295.65 33.992 1296.6 34.696C1297.55 35.4 1298.18 36.36 1298.5 37.576H1295.5C1295.27 37.1067 1294.95 36.7493 1294.54 36.504C1294.13 36.2587 1293.67 36.136 1293.14 36.136C1292.3 36.136 1291.62 36.4293 1291.1 37.016C1290.57 37.6027 1290.31 38.3867 1290.31 39.368C1290.31 40.3493 1290.57 41.1333 1291.1 41.72C1291.62 42.3067 1292.3 42.6 1293.14 42.6C1293.67 42.6 1294.13 42.4773 1294.54 42.232C1294.95 41.9867 1295.27 41.6293 1295.5 41.16H1298.5C1298.18 42.376 1297.55 43.336 1296.6 44.04C1295.65 44.7333 1294.51 45.08 1293.18 45.08C1292.09 45.08 1291.11 44.84 1290.25 44.36C1289.39 43.8693 1288.73 43.192 1288.25 42.328C1287.77 41.464 1287.53 40.4773 1287.53 39.368ZM1303.12 45.128C1302.25 45.128 1301.46 44.9413 1300.76 44.568C1300.06 44.1947 1299.51 43.6613 1299.11 42.968C1298.71 42.2747 1298.52 41.464 1298.52 40.536C1298.52 39.6187 1298.72 38.8133 1299.12 38.12C1299.53 37.416 1300.08 36.8773 1300.79 36.504C1301.49 36.1307 1302.28 35.944 1303.16 35.944C1304.03 35.944 1304.82 36.1307 1305.52 36.504C1306.23 36.8773 1306.78 37.416 1307.19 38.12C1307.59 38.8133 1307.8 39.6187 1307.8 40.536C1307.8 41.4533 1307.59 42.264 1307.17 42.968C1306.77 43.6613 1306.21 44.1947 1305.49 44.568C1304.79 44.9413 1304 45.128 1303.12 45.128ZM1303.12 42.76C1303.65 42.76 1304.09 42.568 1304.45 42.184C1304.82 41.8 1305.01 41.2507 1305.01 40.536C1305.01 39.8213 1304.83 39.272 1304.47 38.888C1304.12 38.504 1303.68 38.312 1303.16 38.312C1302.62 38.312 1302.18 38.504 1301.83 38.888C1301.48 39.2613 1301.3 39.8107 1301.3 40.536C1301.3 41.2507 1301.47 41.8 1301.81 42.184C1302.16 42.568 1302.6 42.76 1303.12 42.76ZM1313.57 35.976C1314.61 35.976 1315.44 36.3173 1316.06 37C1316.69 37.672 1317.01 38.6 1317.01 39.784V45H1314.29V40.152C1314.29 39.5547 1314.13 39.0907 1313.82 38.76C1313.51 38.4293 1313.1 38.264 1312.58 38.264C1312.05 38.264 1311.64 38.4293 1311.33 38.76C1311.02 39.0907 1310.86 39.5547 1310.86 40.152V45H1308.13V36.072H1310.86V37.256C1311.14 36.8613 1311.51 36.552 1311.98 36.328C1312.45 36.0933 1312.98 35.976 1313.57 35.976ZM1322.76 42.68V45H1321.37C1320.38 45 1319.61 44.76 1319.05 44.28C1318.5 43.7893 1318.22 42.9947 1318.22 41.896V38.344H1317.13V36.072H1318.22V33.896H1320.96V36.072H1322.75V38.344H1320.96V41.928C1320.96 42.1947 1321.02 42.3867 1321.15 42.504C1321.28 42.6213 1321.49 42.68 1321.79 42.68H1322.76ZM1322.62 40.52C1322.62 39.6027 1322.79 38.7973 1323.14 38.104C1323.49 37.4107 1323.96 36.8773 1324.56 36.504C1325.16 36.1307 1325.82 35.944 1326.56 35.944C1327.19 35.944 1327.74 36.072 1328.21 36.328C1328.69 36.584 1329.06 36.92 1329.31 37.336V36.072H1332.05V45H1329.31V43.736C1329.05 44.152 1328.67 44.488 1328.19 44.744C1327.72 45 1327.17 45.128 1326.54 45.128C1325.82 45.128 1325.16 44.9413 1324.56 44.568C1323.96 44.184 1323.49 43.6453 1323.14 42.952C1322.79 42.248 1322.62 41.4373 1322.62 40.52ZM1329.31 40.536C1329.31 39.8533 1329.12 39.3147 1328.74 38.92C1328.36 38.5253 1327.9 38.328 1327.36 38.328C1326.82 38.328 1326.35 38.5253 1325.97 38.92C1325.59 39.304 1325.41 39.8373 1325.41 40.52C1325.41 41.2027 1325.59 41.7467 1325.97 42.152C1326.35 42.5467 1326.82 42.744 1327.36 42.744C1327.9 42.744 1328.36 42.5467 1328.74 42.152C1329.12 41.7573 1329.31 41.2187 1329.31 40.536ZM1337.88 42.68V45H1336.49C1335.5 45 1334.73 44.76 1334.17 44.28C1333.62 43.7893 1333.34 42.9947 1333.34 41.896V38.344H1332.25V36.072H1333.34V33.896H1336.08V36.072H1337.87V38.344H1336.08V41.928C1336.08 42.1947 1336.14 42.3867 1336.27 42.504C1336.4 42.6213 1336.61 42.68 1336.91 42.68H1337.88ZM1342.35 45.128C1341.48 45.128 1340.69 44.9413 1339.98 44.568C1339.29 44.1947 1338.74 43.6613 1338.34 42.968C1337.94 42.2747 1337.74 41.464 1337.74 40.536C1337.74 39.6187 1337.95 38.8133 1338.35 38.12C1338.76 37.416 1339.31 36.8773 1340.02 36.504C1340.72 36.1307 1341.51 35.944 1342.38 35.944C1343.26 35.944 1344.05 36.1307 1344.75 36.504C1345.46 36.8773 1346.01 37.416 1346.42 38.12C1346.82 38.8133 1347.02 39.6187 1347.02 40.536C1347.02 41.4533 1346.82 42.264 1346.4 42.968C1345.99 43.6613 1345.43 44.1947 1344.72 44.568C1344.02 44.9413 1343.23 45.128 1342.35 45.128ZM1342.35 42.76C1342.87 42.76 1343.32 42.568 1343.68 42.184C1344.05 41.8 1344.24 41.2507 1344.24 40.536C1344.24 39.8213 1344.06 39.272 1343.7 38.888C1343.34 38.504 1342.91 38.312 1342.38 38.312C1341.85 38.312 1341.41 38.504 1341.06 38.888C1340.7 39.2613 1340.53 39.8107 1340.53 40.536C1340.53 41.2507 1340.7 41.8 1341.04 42.184C1341.39 42.568 1341.83 42.76 1342.35 42.76Z" fill="white"/>
<path d="M638.529 407.679C525.186 253.401 768.321 175.808 768.321 175.808C898.837 370.955 1017.56 381.76 1278.15 295.298L1008.71 651.264C1008.71 651.264 751.872 561.956 638.529 407.679Z" fill="url(#paint2_linear)"/>
<path d="M705.843 426.642C595.018 270.648 839.296 197 839.296 197C966.633 394.112 1085.13 406.811 1347 324.579L1071.97 676C1071.97 676 816.667 582.636 705.843 426.642Z" fill="url(#paint3_linear)"/>
<circle r="31.5" transform="matrix(-1 0 0 1 1063.5 444.5)" fill="#84F7B4"/>
<path d="M76 499H256V555C185.706 555 146.294 555 76 555V499Z" fill="#9164F0"/>
<path d="M106.792 527.552C106.792 525.888 107.152 524.408 107.872 523.112C108.592 521.8 109.592 520.784 110.872 520.064C112.168 519.328 113.632 518.96 115.264 518.96C117.264 518.96 118.976 519.488 120.4 520.544C121.824 521.6 122.776 523.04 123.256 524.864H118.744C118.408 524.16 117.928 523.624 117.304 523.256C116.696 522.888 116 522.704 115.216 522.704C113.952 522.704 112.928 523.144 112.144 524.024C111.36 524.904 110.968 526.08 110.968 527.552C110.968 529.024 111.36 530.2 112.144 531.08C112.928 531.96 113.952 532.4 115.216 532.4C116 532.4 116.696 532.216 117.304 531.848C117.928 531.48 118.408 530.944 118.744 530.24H123.256C122.776 532.064 121.824 533.504 120.4 534.56C118.976 535.6 117.264 536.12 115.264 536.12C113.632 536.12 112.168 535.76 110.872 535.04C109.592 534.304 108.592 533.288 107.872 531.992C107.152 530.696 106.792 529.216 106.792 527.552ZM132.057 536.168C130.473 536.168 129.017 535.8 127.689 535.064C126.377 534.328 125.329 533.304 124.545 531.992C123.777 530.664 123.393 529.176 123.393 527.528C123.393 525.88 123.777 524.4 124.545 523.088C125.329 521.776 126.377 520.752 127.689 520.016C129.017 519.28 130.473 518.912 132.057 518.912C133.641 518.912 135.089 519.28 136.401 520.016C137.729 520.752 138.769 521.776 139.521 523.088C140.289 524.4 140.673 525.88 140.673 527.528C140.673 529.176 140.289 530.664 139.521 531.992C138.753 533.304 137.713 534.328 136.401 535.064C135.089 535.8 133.641 536.168 132.057 536.168ZM132.057 532.424C133.401 532.424 134.473 531.976 135.273 531.08C136.089 530.184 136.497 529 136.497 527.528C136.497 526.04 136.089 524.856 135.273 523.976C134.473 523.08 133.401 522.632 132.057 522.632C130.697 522.632 129.609 523.072 128.793 523.952C127.993 524.832 127.593 526.024 127.593 527.528C127.593 529.016 127.993 530.208 128.793 531.104C129.609 531.984 130.697 532.424 132.057 532.424ZM156.348 536H152.244L145.38 525.608V536H141.276V519.152H145.38L152.244 529.592V519.152H156.348V536ZM169.763 519.152V522.44H165.299V536H161.195V522.44H156.731V519.152H169.763ZM180.631 533.024H174.343L173.335 536H169.039L175.135 519.152H179.887L185.983 536H181.639L180.631 533.024ZM179.575 529.856L177.487 523.688L175.423 529.856H179.575ZM198.278 519.152V522.44H193.814V536H189.71V522.44H185.246V519.152H198.278ZM206.626 536.168C205.042 536.168 203.586 535.8 202.258 535.064C200.946 534.328 199.898 533.304 199.114 531.992C198.346 530.664 197.962 529.176 197.962 527.528C197.962 525.88 198.346 524.4 199.114 523.088C199.898 521.776 200.946 520.752 202.258 520.016C203.586 519.28 205.042 518.912 206.626 518.912C208.21 518.912 209.658 519.28 210.97 520.016C212.298 520.752 213.338 521.776 214.09 523.088C214.858 524.4 215.242 525.88 215.242 527.528C215.242 529.176 214.858 530.664 214.09 531.992C213.322 533.304 212.282 534.328 210.97 535.064C209.658 535.8 208.21 536.168 206.626 536.168ZM206.626 532.424C207.97 532.424 209.042 531.976 209.842 531.08C210.658 530.184 211.066 529 211.066 527.528C211.066 526.04 210.658 524.856 209.842 523.976C209.042 523.08 207.97 522.632 206.626 522.632C205.266 522.632 204.178 523.072 203.362 523.952C202.562 524.832 202.162 526.024 202.162 527.528C202.162 529.016 202.562 530.208 203.362 531.104C204.178 531.984 205.266 532.424 206.626 532.424Z" fill="#FDFDFF"/>
<g filter="url(#filter0_d)">
<path d="M106.852 387.728V413H100.696V397.844L95.044 413H90.076L84.388 397.808V413H78.232V387.728H85.504L92.596 405.224L99.616 387.728H106.852ZM127.695 402.632C127.695 403.208 127.659 403.808 127.587 404.432H113.655C113.751 405.68 114.147 406.64 114.843 407.312C115.563 407.96 116.439 408.284 117.471 408.284C119.007 408.284 120.075 407.636 120.675 406.34H127.227C126.891 407.66 126.279 408.848 125.391 409.904C124.527 410.96 123.435 411.788 122.115 412.388C120.795 412.988 119.319 413.288 117.687 413.288C115.719 413.288 113.967 412.868 112.431 412.028C110.895 411.188 109.695 409.988 108.831 408.428C107.967 406.868 107.535 405.044 107.535 402.956C107.535 400.868 107.955 399.044 108.795 397.484C109.659 395.924 110.859 394.724 112.395 393.884C113.931 393.044 115.695 392.624 117.687 392.624C119.631 392.624 121.359 393.032 122.871 393.848C124.383 394.664 125.559 395.828 126.399 397.34C127.263 398.852 127.695 400.616 127.695 402.632ZM121.395 401.012C121.395 399.956 121.035 399.116 120.315 398.492C119.595 397.868 118.695 397.556 117.615 397.556C116.583 397.556 115.707 397.856 114.987 398.456C114.291 399.056 113.859 399.908 113.691 401.012H121.395ZM132.307 402.956C132.307 400.868 132.727 399.044 133.567 397.484C134.431 395.924 135.619 394.724 137.131 393.884C138.667 393.044 140.419 392.624 142.387 392.624C144.907 392.624 147.007 393.284 148.687 394.604C150.391 395.924 151.507 397.784 152.035 400.184H145.483C144.931 398.648 143.863 397.88 142.279 397.88C141.151 397.88 140.251 398.324 139.579 399.212C138.907 400.076 138.571 401.324 138.571 402.956C138.571 404.588 138.907 405.848 139.579 406.736C140.251 407.6 141.151 408.032 142.279 408.032C143.863 408.032 144.931 407.264 145.483 405.728H152.035C151.507 408.08 150.391 409.928 148.687 411.272C146.983 412.616 144.883 413.288 142.387 413.288C140.419 413.288 138.667 412.868 137.131 412.028C135.619 411.188 134.431 409.988 133.567 408.428C132.727 406.868 132.307 405.044 132.307 402.956ZM165.156 392.696C167.46 392.696 169.308 393.464 170.7 395C172.092 396.512 172.788 398.6 172.788 401.264V413H166.668V402.092C166.668 400.748 166.32 399.704 165.624 398.96C164.928 398.216 163.992 397.844 162.816 397.844C161.64 397.844 160.704 398.216 160.008 398.96C159.312 399.704 158.964 400.748 158.964 402.092V413H152.808V386.36H158.964V395.612C159.588 394.724 160.44 394.016 161.52 393.488C162.6 392.96 163.812 392.696 165.156 392.696ZM173.322 402.92C173.322 400.856 173.706 399.044 174.474 397.484C175.266 395.924 176.334 394.724 177.678 393.884C179.022 393.044 180.522 392.624 182.178 392.624C183.594 392.624 184.83 392.912 185.886 393.488C186.966 394.064 187.794 394.82 188.37 395.756V392.912H194.526V413H188.37V410.156C187.77 411.092 186.93 411.848 185.85 412.424C184.794 413 183.558 413.288 182.142 413.288C180.51 413.288 179.022 412.868 177.678 412.028C176.334 411.164 175.266 409.952 174.474 408.392C173.706 406.808 173.322 404.984 173.322 402.92ZM188.37 402.956C188.37 401.42 187.938 400.208 187.074 399.32C186.234 398.432 185.202 397.988 183.978 397.988C182.754 397.988 181.71 398.432 180.846 399.32C180.006 400.184 179.586 401.384 179.586 402.92C179.586 404.456 180.006 405.68 180.846 406.592C181.71 407.48 182.754 407.924 183.978 407.924C185.202 407.924 186.234 407.48 187.074 406.592C187.938 405.704 188.37 404.492 188.37 402.956ZM222.092 392.696C224.588 392.696 226.568 393.452 228.032 394.964C229.52 396.476 230.264 398.576 230.264 401.264V413H224.144V402.092C224.144 400.796 223.796 399.8 223.1 399.104C222.428 398.384 221.492 398.024 220.292 398.024C219.092 398.024 218.144 398.384 217.448 399.104C216.776 399.8 216.44 400.796 216.44 402.092V413H210.32V402.092C210.32 400.796 209.972 399.8 209.276 399.104C208.604 398.384 207.668 398.024 206.468 398.024C205.268 398.024 204.32 398.384 203.624 399.104C202.952 399.8 202.616 400.796 202.616 402.092V413H196.46V392.912H202.616V395.432C203.24 394.592 204.056 393.932 205.064 393.452C206.072 392.948 207.212 392.696 208.484 392.696C209.996 392.696 211.34 393.02 212.516 393.668C213.716 394.316 214.652 395.24 215.324 396.44C216.02 395.336 216.968 394.436 218.168 393.74C219.368 393.044 220.676 392.696 222.092 392.696ZM241.193 413.288C239.225 413.288 237.449 412.868 235.865 412.028C234.305 411.188 233.069 409.988 232.157 408.428C231.269 406.868 230.825 405.044 230.825 402.956C230.825 400.892 231.281 399.08 232.193 397.52C233.105 395.936 234.353 394.724 235.937 393.884C237.521 393.044 239.297 392.624 241.265 392.624C243.233 392.624 245.009 393.044 246.593 393.884C248.177 394.724 249.425 395.936 250.337 397.52C251.249 399.08 251.705 400.892 251.705 402.956C251.705 405.02 251.237 406.844 250.301 408.428C249.389 409.988 248.129 411.188 246.521 412.028C244.937 412.868 243.161 413.288 241.193 413.288ZM241.193 407.96C242.369 407.96 243.365 407.528 244.181 406.664C245.021 405.8 245.441 404.564 245.441 402.956C245.441 401.348 245.033 400.112 244.217 399.248C243.425 398.384 242.441 397.952 241.265 397.952C240.065 397.952 239.069 398.384 238.277 399.248C237.485 400.088 237.089 401.324 237.089 402.956C237.089 404.564 237.473 405.8 238.241 406.664C239.033 407.528 240.017 407.96 241.193 407.96Z" fill="white"/>
<path d="M273.4 387.728V404.936C273.4 407.6 272.644 409.652 271.132 411.092C269.644 412.532 267.628 413.252 265.084 413.252C262.42 413.252 260.284 412.496 258.676 410.984C257.068 409.472 256.264 407.324 256.264 404.54H262.384C262.384 405.596 262.6 406.4 263.032 406.952C263.464 407.48 264.088 407.744 264.904 407.744C265.648 407.744 266.224 407.504 266.632 407.024C267.04 406.544 267.244 405.848 267.244 404.936V387.728H273.4ZM284.996 413.288C283.028 413.288 281.252 412.868 279.668 412.028C278.108 411.188 276.872 409.988 275.96 408.428C275.072 406.868 274.628 405.044 274.628 402.956C274.628 400.892 275.084 399.08 275.996 397.52C276.908 395.936 278.156 394.724 279.74 393.884C281.324 393.044 283.1 392.624 285.068 392.624C287.036 392.624 288.812 393.044 290.396 393.884C291.98 394.724 293.228 395.936 294.14 397.52C295.052 399.08 295.508 400.892 295.508 402.956C295.508 405.02 295.04 406.844 294.104 408.428C293.192 409.988 291.932 411.188 290.324 412.028C288.74 412.868 286.964 413.288 284.996 413.288ZM284.996 407.96C286.172 407.96 287.168 407.528 287.984 406.664C288.824 405.8 289.244 404.564 289.244 402.956C289.244 401.348 288.836 400.112 288.02 399.248C287.228 398.384 286.244 397.952 285.068 397.952C283.868 397.952 282.872 398.384 282.08 399.248C281.288 400.088 280.892 401.324 280.892 402.956C280.892 404.564 281.276 405.8 282.044 406.664C282.836 407.528 283.82 407.96 284.996 407.96ZM308.602 392.696C310.906 392.696 312.754 393.464 314.146 395C315.538 396.512 316.234 398.6 316.234 401.264V413H310.114V402.092C310.114 400.748 309.766 399.704 309.07 398.96C308.374 398.216 307.438 397.844 306.262 397.844C305.086 397.844 304.15 398.216 303.454 398.96C302.758 399.704 302.41 400.748 302.41 402.092V413H296.254V386.36H302.41V395.612C303.034 394.724 303.886 394.016 304.966 393.488C306.046 392.96 307.258 392.696 308.602 392.696ZM330.232 392.696C332.584 392.696 334.456 393.464 335.848 395C337.264 396.512 337.972 398.6 337.972 401.264V413H331.852V402.092C331.852 400.748 331.504 399.704 330.808 398.96C330.112 398.216 329.176 397.844 328 397.844C326.824 397.844 325.888 398.216 325.192 398.96C324.496 399.704 324.148 400.748 324.148 402.092V413H317.992V392.912H324.148V395.576C324.772 394.688 325.612 393.992 326.668 393.488C327.724 392.96 328.912 392.696 330.232 392.696ZM351.97 392.696C354.322 392.696 356.194 393.464 357.586 395C359.002 396.512 359.71 398.6 359.71 401.264V413H353.59V402.092C353.59 400.748 353.242 399.704 352.546 398.96C351.85 398.216 350.914 397.844 349.738 397.844C348.562 397.844 347.626 398.216 346.93 398.96C346.234 399.704 345.886 400.748 345.886 402.092V413H339.73V392.912H345.886V395.576C346.51 394.688 347.35 393.992 348.406 393.488C349.462 392.96 350.65 392.696 351.97 392.696ZM381.988 392.912L369.388 422.54H362.764L367.372 412.316L359.2 392.912H366.076L370.72 405.476L375.328 392.912H381.988Z" fill="#84F7B4"/>
</g>
<path d="M87.7 442.728C90.364 442.728 92.692 443.256 94.684 444.312C96.676 445.368 98.212 446.856 99.292 448.776C100.396 450.672 100.948 452.868 100.948 455.364C100.948 457.836 100.396 460.032 99.292 461.952C98.212 463.872 96.664 465.36 94.648 466.416C92.656 467.472 90.34 468 87.7 468H78.232V442.728H87.7ZM87.304 462.672C89.632 462.672 91.444 462.036 92.74 460.764C94.036 459.492 94.684 457.692 94.684 455.364C94.684 453.036 94.036 451.224 92.74 449.928C91.444 448.632 89.632 447.984 87.304 447.984H84.388V462.672H87.304ZM120.804 457.632C120.804 458.208 120.768 458.808 120.696 459.432H106.764C106.86 460.68 107.256 461.64 107.952 462.312C108.672 462.96 109.548 463.284 110.58 463.284C112.116 463.284 113.184 462.636 113.784 461.34H120.336C120 462.66 119.388 463.848 118.5 464.904C117.636 465.96 116.544 466.788 115.224 467.388C113.904 467.988 112.428 468.288 110.796 468.288C108.828 468.288 107.076 467.868 105.54 467.028C104.004 466.188 102.804 464.988 101.94 463.428C101.076 461.868 100.644 460.044 100.644 457.956C100.644 455.868 101.064 454.044 101.904 452.484C102.768 450.924 103.968 449.724 105.504 448.884C107.04 448.044 108.804 447.624 110.796 447.624C112.74 447.624 114.468 448.032 115.98 448.848C117.492 449.664 118.668 450.828 119.508 452.34C120.372 453.852 120.804 455.616 120.804 457.632ZM114.504 456.012C114.504 454.956 114.144 454.116 113.424 453.492C112.704 452.868 111.804 452.556 110.724 452.556C109.692 452.556 108.816 452.856 108.096 453.456C107.4 454.056 106.968 454.908 106.8 456.012H114.504ZM129.704 468.288C127.952 468.288 126.392 467.988 125.024 467.388C123.656 466.788 122.576 465.972 121.784 464.94C120.992 463.884 120.548 462.708 120.452 461.412H126.536C126.608 462.108 126.932 462.672 127.508 463.104C128.084 463.536 128.792 463.752 129.632 463.752C130.4 463.752 130.988 463.608 131.396 463.32C131.828 463.008 132.044 462.612 132.044 462.132C132.044 461.556 131.744 461.136 131.144 460.872C130.544 460.584 129.572 460.272 128.228 459.936C126.788 459.6 125.588 459.252 124.628 458.892C123.668 458.508 122.84 457.92 122.144 457.128C121.448 456.312 121.1 455.22 121.1 453.852C121.1 452.7 121.412 451.656 122.036 450.72C122.684 449.76 123.62 449.004 124.844 448.452C126.092 447.9 127.568 447.624 129.272 447.624C131.792 447.624 133.772 448.248 135.212 449.496C136.676 450.744 137.516 452.4 137.732 454.464H132.044C131.948 453.768 131.636 453.216 131.108 452.808C130.604 452.4 129.932 452.196 129.092 452.196C128.372 452.196 127.82 452.34 127.436 452.628C127.052 452.892 126.86 453.264 126.86 453.744C126.86 454.32 127.16 454.752 127.76 455.04C128.384 455.328 129.344 455.616 130.64 455.904C132.128 456.288 133.34 456.672 134.276 457.056C135.212 457.416 136.028 458.016 136.724 458.856C137.444 459.672 137.816 460.776 137.84 462.168C137.84 463.344 137.504 464.4 136.832 465.336C136.184 466.248 135.236 466.968 133.988 467.496C132.764 468.024 131.336 468.288 129.704 468.288ZM158.022 457.632C158.022 458.208 157.986 458.808 157.914 459.432H143.982C144.078 460.68 144.474 461.64 145.17 462.312C145.89 462.96 146.766 463.284 147.798 463.284C149.334 463.284 150.402 462.636 151.002 461.34H157.554C157.218 462.66 156.606 463.848 155.718 464.904C154.854 465.96 153.762 466.788 152.442 467.388C151.122 467.988 149.646 468.288 148.014 468.288C146.046 468.288 144.294 467.868 142.758 467.028C141.222 466.188 140.022 464.988 139.158 463.428C138.294 461.868 137.862 460.044 137.862 457.956C137.862 455.868 138.282 454.044 139.122 452.484C139.986 450.924 141.186 449.724 142.722 448.884C144.258 448.044 146.022 447.624 148.014 447.624C149.958 447.624 151.686 448.032 153.198 448.848C154.71 449.664 155.886 450.828 156.726 452.34C157.59 453.852 158.022 455.616 158.022 457.632ZM151.722 456.012C151.722 454.956 151.362 454.116 150.642 453.492C149.922 452.868 149.022 452.556 147.942 452.556C146.91 452.556 146.034 452.856 145.314 453.456C144.618 454.056 144.186 454.908 144.018 456.012H151.722ZM170.99 447.696C173.342 447.696 175.214 448.464 176.606 450C178.022 451.512 178.73 453.6 178.73 456.264V468H172.61V457.092C172.61 455.748 172.262 454.704 171.566 453.96C170.87 453.216 169.934 452.844 168.758 452.844C167.582 452.844 166.646 453.216 165.95 453.96C165.254 454.704 164.906 455.748 164.906 457.092V468H158.75V447.912H164.906V450.576C165.53 449.688 166.37 448.992 167.426 448.488C168.482 447.96 169.67 447.696 170.99 447.696ZM189.523 462.24L193.879 447.912H200.431L193.303 468H185.707L178.579 447.912H185.167L189.523 462.24ZM209.647 468.288C207.679 468.288 205.903 467.868 204.319 467.028C202.759 466.188 201.523 464.988 200.611 463.428C199.723 461.868 199.279 460.044 199.279 457.956C199.279 455.892 199.735 454.08 200.647 452.52C201.559 450.936 202.807 449.724 204.391 448.884C205.975 448.044 207.751 447.624 209.719 447.624C211.687 447.624 213.463 448.044 215.047 448.884C216.631 449.724 217.879 450.936 218.791 452.52C219.703 454.08 220.159 455.892 220.159 457.956C220.159 460.02 219.691 461.844 218.755 463.428C217.843 464.988 216.583 466.188 214.975 467.028C213.391 467.868 211.615 468.288 209.647 468.288ZM209.647 462.96C210.823 462.96 211.819 462.528 212.635 461.664C213.475 460.8 213.895 459.564 213.895 457.956C213.895 456.348 213.487 455.112 212.671 454.248C211.879 453.384 210.895 452.952 209.719 452.952C208.519 452.952 207.523 453.384 206.731 454.248C205.939 455.088 205.543 456.324 205.543 457.956C205.543 459.564 205.927 460.8 206.695 461.664C207.487 462.528 208.471 462.96 209.647 462.96ZM227.061 441.36V468H220.905V441.36H227.061ZM238.038 462.24L242.394 447.912H248.946L241.818 468H234.222L227.094 447.912H233.682L238.038 462.24ZM267.953 457.632C267.953 458.208 267.917 458.808 267.845 459.432H253.913C254.009 460.68 254.405 461.64 255.101 462.312C255.821 462.96 256.697 463.284 257.729 463.284C259.265 463.284 260.333 462.636 260.933 461.34H267.485C267.149 462.66 266.537 463.848 265.649 464.904C264.785 465.96 263.693 466.788 262.373 467.388C261.053 467.988 259.577 468.288 257.945 468.288C255.977 468.288 254.225 467.868 252.689 467.028C251.153 466.188 249.953 464.988 249.089 463.428C248.225 461.868 247.793 460.044 247.793 457.956C247.793 455.868 248.213 454.044 249.053 452.484C249.917 450.924 251.117 449.724 252.653 448.884C254.189 448.044 255.953 447.624 257.945 447.624C259.889 447.624 261.617 448.032 263.129 448.848C264.641 449.664 265.817 450.828 266.657 452.34C267.521 453.852 267.953 455.616 267.953 457.632ZM261.653 456.012C261.653 454.956 261.293 454.116 260.573 453.492C259.853 452.868 258.953 452.556 257.873 452.556C256.841 452.556 255.965 452.856 255.245 453.456C254.549 454.056 254.117 454.908 253.949 456.012H261.653ZM267.456 457.92C267.456 455.856 267.84 454.044 268.608 452.484C269.4 450.924 270.468 449.724 271.812 448.884C273.156 448.044 274.656 447.624 276.312 447.624C277.632 447.624 278.832 447.9 279.912 448.452C281.016 449.004 281.88 449.748 282.504 450.684V441.36H288.66V468H282.504V465.12C281.928 466.08 281.1 466.848 280.02 467.424C278.964 468 277.728 468.288 276.312 468.288C274.656 468.288 273.156 467.868 271.812 467.028C270.468 466.164 269.4 464.952 268.608 463.392C267.84 461.808 267.456 459.984 267.456 457.92ZM282.504 457.956C282.504 456.42 282.072 455.208 281.208 454.32C280.368 453.432 279.336 452.988 278.112 452.988C276.888 452.988 275.844 453.432 274.98 454.32C274.14 455.184 273.72 456.384 273.72 457.92C273.72 459.456 274.14 460.68 274.98 461.592C275.844 462.48 276.888 462.924 278.112 462.924C279.336 462.924 280.368 462.48 281.208 461.592C282.072 460.704 282.504 459.492 282.504 457.956ZM299.738 468.288C297.77 468.288 295.994 467.868 294.41 467.028C292.85 466.188 291.614 464.988 290.702 463.428C289.814 461.868 289.37 460.044 289.37 457.956C289.37 455.892 289.826 454.08 290.738 452.52C291.65 450.936 292.898 449.724 294.482 448.884C296.066 448.044 297.842 447.624 299.81 447.624C301.778 447.624 303.554 448.044 305.138 448.884C306.722 449.724 307.97 450.936 308.882 452.52C309.794 454.08 310.25 455.892 310.25 457.956C310.25 460.02 309.782 461.844 308.846 463.428C307.934 464.988 306.674 466.188 305.066 467.028C303.482 467.868 301.706 468.288 299.738 468.288ZM299.738 462.96C300.914 462.96 301.91 462.528 302.726 461.664C303.566 460.8 303.986 459.564 303.986 457.956C303.986 456.348 303.578 455.112 302.762 454.248C301.97 453.384 300.986 452.952 299.81 452.952C298.61 452.952 297.614 453.384 296.822 454.248C296.03 455.088 295.634 456.324 295.634 457.956C295.634 459.564 296.018 460.8 296.786 461.664C297.578 462.528 298.562 462.96 299.738 462.96ZM317.152 451.26C317.872 450.156 318.772 449.292 319.852 448.668C320.932 448.02 322.132 447.696 323.452 447.696V454.212H321.76C320.224 454.212 319.072 454.548 318.304 455.22C317.536 455.868 317.152 457.02 317.152 458.676V468H310.996V447.912H317.152V451.26ZM350.544 442.728V447.66H340.248V452.988H347.952V457.776H340.248V468H334.092V442.728H350.544ZM357.416 451.26C358.136 450.156 359.036 449.292 360.116 448.668C361.196 448.02 362.396 447.696 363.716 447.696V454.212H362.024C360.488 454.212 359.336 454.548 358.568 455.22C357.8 455.868 357.416 457.02 357.416 458.676V468H351.26V447.912H357.416V451.26ZM373.282 468.288C371.314 468.288 369.538 467.868 367.954 467.028C366.394 466.188 365.158 464.988 364.246 463.428C363.358 461.868 362.914 460.044 362.914 457.956C362.914 455.892 363.37 454.08 364.282 452.52C365.194 450.936 366.442 449.724 368.026 448.884C369.61 448.044 371.386 447.624 373.354 447.624C375.322 447.624 377.098 448.044 378.682 448.884C380.266 449.724 381.514 450.936 382.426 452.52C383.338 454.08 383.794 455.892 383.794 457.956C383.794 460.02 383.326 461.844 382.39 463.428C381.478 464.988 380.218 466.188 378.61 467.028C377.026 467.868 375.25 468.288 373.282 468.288ZM373.282 462.96C374.458 462.96 375.454 462.528 376.27 461.664C377.11 460.8 377.53 459.564 377.53 457.956C377.53 456.348 377.122 455.112 376.306 454.248C375.514 453.384 374.53 452.952 373.354 452.952C372.154 452.952 371.158 453.384 370.366 454.248C369.574 455.088 369.178 456.324 369.178 457.956C369.178 459.564 369.562 460.8 370.33 461.664C371.122 462.528 372.106 462.96 373.282 462.96ZM396.78 447.696C399.132 447.696 401.004 448.464 402.396 450C403.812 451.512 404.52 453.6 404.52 456.264V468H398.4V457.092C398.4 455.748 398.052 454.704 397.356 453.96C396.66 453.216 395.724 452.844 394.548 452.844C393.372 452.844 392.436 453.216 391.74 453.96C391.044 454.704 390.696 455.748 390.696 457.092V468H384.54V447.912H390.696V450.576C391.32 449.688 392.16 448.992 393.216 448.488C394.272 447.96 395.46 447.696 396.78 447.696ZM417.474 462.78V468H414.342C412.11 468 410.37 467.46 409.122 466.38C407.874 465.276 407.25 463.488 407.25 461.016V453.024H404.802V447.912H407.25V443.016H413.406V447.912H417.438V453.024H413.406V461.088C413.406 461.688 413.55 462.12 413.838 462.384C414.126 462.648 414.606 462.78 415.278 462.78H417.474ZM433.863 452.808V457.92H418.023V452.808H433.863ZM442.902 447.66V452.772H451.146V457.524H442.902V463.068H452.226V468H436.746V442.728H452.226V447.66H442.902ZM465.942 447.696C468.294 447.696 470.166 448.464 471.558 450C472.974 451.512 473.682 453.6 473.682 456.264V468H467.562V457.092C467.562 455.748 467.214 454.704 466.518 453.96C465.822 453.216 464.886 452.844 463.71 452.844C462.534 452.844 461.598 453.216 460.902 453.96C460.206 454.704 459.858 455.748 459.858 457.092V468H453.702V447.912H459.858V450.576C460.482 449.688 461.322 448.992 462.378 448.488C463.434 447.96 464.622 447.696 465.942 447.696ZM474.216 457.92C474.216 455.856 474.6 454.044 475.368 452.484C476.16 450.924 477.228 449.724 478.572 448.884C479.916 448.044 481.416 447.624 483.072 447.624C484.392 447.624 485.592 447.9 486.672 448.452C487.776 449.004 488.64 449.748 489.264 450.684V441.36H495.42V468H489.264V465.12C488.688 466.08 487.86 466.848 486.78 467.424C485.724 468 484.488 468.288 483.072 468.288C481.416 468.288 479.916 467.868 478.572 467.028C477.228 466.164 476.16 464.952 475.368 463.392C474.6 461.808 474.216 459.984 474.216 457.92ZM489.264 457.956C489.264 456.42 488.832 455.208 487.968 454.32C487.128 453.432 486.096 452.988 484.872 452.988C483.648 452.988 482.604 453.432 481.74 454.32C480.9 455.184 480.48 456.384 480.48 457.92C480.48 459.456 480.9 460.68 481.74 461.592C482.604 462.48 483.648 462.924 484.872 462.924C486.096 462.924 487.128 462.48 487.968 461.592C488.832 460.704 489.264 459.492 489.264 457.956Z" fill="white"/>
<path d="M90.184 358.252C87.808 358.252 85.624 357.7 83.632 356.596C81.664 355.492 80.092 353.956 78.916 351.988C77.764 349.996 77.188 347.764 77.188 345.292C77.188 342.82 77.764 340.6 78.916 338.632C80.092 336.664 81.664 335.128 83.632 334.024C85.624 332.92 87.808 332.368 90.184 332.368C92.56 332.368 94.732 332.92 96.7 334.024C98.692 335.128 100.252 336.664 101.38 338.632C102.532 340.6 103.108 342.82 103.108 345.292C103.108 347.764 102.532 349.996 101.38 351.988C100.228 353.956 98.668 355.492 96.7 356.596C94.732 357.7 92.56 358.252 90.184 358.252ZM90.184 352.636C92.2 352.636 93.808 351.964 95.008 350.62C96.232 349.276 96.844 347.5 96.844 345.292C96.844 343.06 96.232 341.284 95.008 339.964C93.808 338.62 92.2 337.948 90.184 337.948C88.144 337.948 86.512 338.608 85.288 339.928C84.088 341.248 83.488 343.036 83.488 345.292C83.488 347.524 84.088 349.312 85.288 350.656C86.512 351.976 88.144 352.636 90.184 352.636ZM110.169 331.36V358H104.013V331.36H110.169ZM110.886 347.92C110.886 345.856 111.27 344.044 112.038 342.484C112.83 340.924 113.898 339.724 115.242 338.884C116.586 338.044 118.086 337.624 119.742 337.624C121.158 337.624 122.394 337.912 123.45 338.488C124.53 339.064 125.358 339.82 125.934 340.756V337.912H132.09V358H125.934V355.156C125.334 356.092 124.494 356.848 123.414 357.424C122.358 358 121.122 358.288 119.706 358.288C118.074 358.288 116.586 357.868 115.242 357.028C113.898 356.164 112.83 354.952 112.038 353.392C111.27 351.808 110.886 349.984 110.886 347.92ZM125.934 347.956C125.934 346.42 125.502 345.208 124.638 344.32C123.798 343.432 122.766 342.988 121.542 342.988C120.318 342.988 119.274 343.432 118.41 344.32C117.57 345.184 117.15 346.384 117.15 347.92C117.15 349.456 117.57 350.68 118.41 351.592C119.274 352.48 120.318 352.924 121.542 352.924C122.766 352.924 123.798 352.48 124.638 351.592C125.502 350.704 125.934 349.492 125.934 347.956ZM126.402 332.908L117.726 336.544V332.296L126.402 328.12V332.908Z" fill="white"/>
<path d="M148.703 602.838C148.703 602.963 148.555 603.063 148.368 603.063C148.155 603.081 148.006 602.981 148.006 602.838C148.006 602.713 148.155 602.613 148.342 602.613C148.535 602.594 148.703 602.694 148.703 602.838ZM146.697 602.556C146.652 602.681 146.781 602.825 146.974 602.863C147.142 602.925 147.335 602.863 147.374 602.738C147.413 602.613 147.29 602.469 147.097 602.413C146.929 602.369 146.742 602.431 146.697 602.556ZM149.548 602.45C149.361 602.494 149.232 602.613 149.252 602.756C149.271 602.881 149.439 602.963 149.632 602.919C149.819 602.875 149.948 602.756 149.929 602.631C149.91 602.513 149.735 602.431 149.548 602.45ZM153.794 578.5C144.845 578.5 138 585.081 138 593.75C138 600.681 142.503 606.613 148.935 608.7C149.761 608.844 150.052 608.35 150.052 607.944C150.052 607.556 150.032 605.419 150.032 604.106C150.032 604.106 145.516 605.044 144.568 602.244C144.568 602.244 143.832 600.425 142.774 599.956C142.774 599.956 141.297 598.975 142.877 598.994C142.877 598.994 144.484 599.119 145.368 600.606C146.781 603.019 149.148 602.325 150.071 601.913C150.219 600.913 150.639 600.219 151.103 599.806C147.497 599.419 143.858 598.913 143.858 592.9C143.858 591.181 144.348 590.319 145.381 589.219C145.213 588.813 144.665 587.138 145.548 584.975C146.897 584.569 150 586.663 150 586.663C151.29 586.313 152.677 586.131 154.052 586.131C155.426 586.131 156.813 586.313 158.103 586.663C158.103 586.663 161.206 584.563 162.555 584.975C163.439 587.144 162.89 588.813 162.723 589.219C163.755 590.325 164.387 591.188 164.387 592.9C164.387 598.931 160.587 599.413 156.981 599.806C157.574 600.3 158.077 601.238 158.077 602.706C158.077 604.813 158.058 607.419 158.058 607.931C158.058 608.338 158.355 608.831 159.174 608.688C165.626 606.613 170 600.681 170 593.75C170 585.081 162.742 578.5 153.794 578.5ZM144.271 600.056C144.187 600.119 144.206 600.263 144.316 600.381C144.419 600.481 144.568 600.525 144.652 600.444C144.735 600.381 144.716 600.238 144.606 600.119C144.503 600.019 144.355 599.975 144.271 600.056ZM143.574 599.55C143.529 599.631 143.594 599.731 143.723 599.794C143.826 599.856 143.955 599.838 144 599.75C144.045 599.669 143.981 599.569 143.852 599.506C143.723 599.469 143.619 599.488 143.574 599.55ZM145.665 601.775C145.561 601.856 145.6 602.044 145.748 602.163C145.897 602.306 146.084 602.325 146.168 602.225C146.252 602.144 146.213 601.956 146.084 601.838C145.942 601.694 145.748 601.675 145.665 601.775ZM144.929 600.856C144.826 600.919 144.826 601.081 144.929 601.225C145.032 601.369 145.206 601.431 145.29 601.369C145.394 601.288 145.394 601.125 145.29 600.981C145.2 600.838 145.032 600.775 144.929 600.856Z" fill="white"/>
<path d="M210.004 585.954C205.463 585.954 201.801 589.692 201.801 594.326C201.801 598.959 205.463 602.697 210.004 602.697C214.544 602.697 218.206 598.959 218.206 594.326C218.206 589.692 214.544 585.954 210.004 585.954ZM210.004 599.768C207.069 599.768 204.671 597.327 204.671 594.326C204.671 591.324 207.062 588.883 210.004 588.883C212.945 588.883 215.336 591.324 215.336 594.326C215.336 597.327 212.938 599.768 210.004 599.768V599.768ZM220.455 585.612C220.455 586.697 219.598 587.564 218.542 587.564C217.478 587.564 216.628 586.69 216.628 585.612C216.628 584.534 217.485 583.659 218.542 583.659C219.598 583.659 220.455 584.534 220.455 585.612ZM225.888 587.594C225.766 584.978 225.181 582.661 223.303 580.752C221.433 578.843 219.163 578.246 216.6 578.115C213.959 577.962 206.041 577.962 203.4 578.115C200.844 578.239 198.574 578.836 196.697 580.745C194.819 582.654 194.241 584.971 194.112 587.586C193.963 590.282 193.963 598.362 194.112 601.058C194.234 603.673 194.819 605.99 196.697 607.899C198.574 609.808 200.837 610.405 203.4 610.536C206.041 610.689 213.959 610.689 216.6 610.536C219.163 610.413 221.433 609.815 223.303 607.899C225.174 605.99 225.759 603.673 225.888 601.058C226.037 598.362 226.037 590.289 225.888 587.594V587.594ZM222.475 603.95C221.918 605.378 220.84 606.478 219.434 607.054C217.328 607.906 212.331 607.709 210.004 607.709C207.676 607.709 202.672 607.899 200.573 607.054C199.174 606.485 198.096 605.385 197.532 603.95C196.697 601.801 196.889 596.701 196.889 594.326C196.889 591.95 196.704 586.843 197.532 584.701C198.089 583.273 199.167 582.173 200.573 581.597C202.679 580.745 207.676 580.942 210.004 580.942C212.331 580.942 217.335 580.752 219.434 581.597C220.833 582.166 221.911 583.266 222.475 584.701C223.31 586.85 223.118 591.95 223.118 594.326C223.118 596.701 223.31 601.808 222.475 603.95Z" fill="white"/>
<path d="M83.1629 610.651H76.5286V588.852H83.1629V610.651ZM79.8421 585.878C77.7207 585.878 76 584.085 76 581.92C76 580.881 76.4048 579.883 77.1253 579.148C77.8459 578.413 78.8231 578 79.8421 578C80.8611 578 81.8384 578.413 82.5589 579.148C83.2795 579.883 83.6843 580.881 83.6843 581.92C83.6843 584.085 81.9629 585.878 79.8421 585.878ZM107.993 610.651H101.373V600.039C101.373 597.51 101.323 594.267 97.9236 594.267C94.4743 594.267 93.9457 597.015 93.9457 599.857V610.651H87.3186V588.852H93.6814V591.825H93.7743C94.66 590.113 96.8236 588.305 100.051 588.305C106.766 588.305 108 592.817 108 598.676V610.651H107.993Z" fill="white"/>
<defs>
<filter id="filter0_d" x="74.2324" y="386.359" width="311.756" height="44.18" filterUnits="userSpaceOnUse" color-interpolation-filters="sRGB">
<feFlood flood-opacity="0" result="BackgroundImageFix"/>
<feColorMatrix in="SourceAlpha" type="matrix" values="0 0 0 0 0 0 0 0 0 0 0 0 0 0 0 0 0 0 127 0"/>
<feOffset dy="4"/>
<feGaussianBlur stdDeviation="2"/>
<feColorMatrix type="matrix" values="0 0 0 0 0 0 0 0 0 0 0 0 0 0 0 0 0 0 0.25 0"/>
<feBlend mode="normal" in2="BackgroundImageFix" result="effect1_dropShadow"/>
<feBlend mode="normal" in="SourceGraphic" in2="effect1_dropShadow" result="shape"/>
</filter>
<linearGradient id="paint0_linear" x1="139.31" y1="5.11232" x2="166.48" y2="59.7481" gradientUnits="userSpaceOnUse">
<stop offset="0.146194" stop-color="#784D4D"/>
<stop offset="1" stop-color="#442B65"/>
</linearGradient>
<linearGradient id="paint1_linear" x1="96.4125" y1="-1.1767" x2="200.982" y2="54.866" gradientUnits="userSpaceOnUse">
<stop offset="0.126751" stop-color="#9B7BDE"/>
<stop offset="0.486326" stop-color="#9872E8"/>
<stop offset="0.899291" stop-color="#BB31AD" stop-opacity="0.5"/>
</linearGradient>
<linearGradient id="paint2_linear" x1="678.662" y1="109.151" x2="948.731" y2="652.226" gradientUnits="userSpaceOnUse">
<stop offset="0.146194" stop-color="#784D4D"/>
<stop offset="1" stop-color="#442B65"/>
</linearGradient>
<linearGradient id="paint3_linear" x1="234.521" y1="58.4156" x2="1277.81" y2="639.058" gradientUnits="userSpaceOnUse">
<stop offset="0.126751" stop-color="#9B7BDE"/>
<stop offset="0.486326" stop-color="#9872E8"/>
<stop offset="0.899291" stop-color="#BB31AD" stop-opacity="0.5"/>
</linearGradient>
</defs>
</svg>
