<svg width="512" height="512" viewBox="0 0 512 512" fill="none" xmlns="http://www.w3.org/2000/svg">
<g clip-path="url(#clip0)">
<path d="M204.3 4.99989C104.9 24.3999 24.7995 104.3 5.19951 203.4C-31.8005 390.4 136.9 529.8 264 510.1C305.2 503.7 325.4 455.5 306.5 418.4C283.4 373 316.4 320 367.4 320H447.1C482.9 320 511.9 290.4 512 254.7C511.5 97.0999 368.1 -26.9001 204.3 4.99989ZM95.9995 320C78.2995 320 63.9995 305.7 63.9995 288C63.9995 270.3 78.2995 256 95.9995 256C113.7 256 128 270.3 128 288C128 305.7 113.7 320 95.9995 320ZM128 192C110.3 192 95.9995 177.7 95.9995 160C95.9995 142.3 110.3 128 128 128C145.7 128 160 142.3 160 160C160 177.7 145.7 192 128 192ZM256 128C238.3 128 224 113.7 224 95.9999C224 78.2999 238.3 63.9999 256 63.9999C273.7 63.9999 288 78.2999 288 95.9999C288 113.7 273.7 128 256 128ZM384 192C366.3 192 352 177.7 352 160C352 142.3 366.3 128 384 128C401.7 128 416 142.3 416 160C416 177.7 401.7 192 384 192Z" fill="#78DCA1"/>
</g>
<defs>
<clipPath id="clip0">
<rect width="512" height="512" fill="white"/>
</clipPath>
</defs>
</svg>
